{
  "accessors": [
    {
      "bufferView": 2,
      "componentType": 5126,
      "count": 18094,
      "max": [
        87.57627868652344,
        212.61770629882813,
        42.07360076904297
      ],
      "min": [
        -125.65032958984375,
        -143.2932891845703,
        -40.81133270263672
      ],
      "type": "VEC3"
    },
    {
      "bufferView": 2,
      "byteOffset": 217128,
      "componentType": 5126,
      "count": 18094,
      "max": [
        0.9999021291732788,
        0.9998594522476196,
        0.9998816251754761
      ],
      "min": [
        -0.9999592304229736,
        -0.9998323321342468,
        -0.9999745488166809
      ],
      "type": "VEC3"
    },
    {
      "bufferView": 3,
      "componentType": 5126,
      "count": 18094,
      "max": [
        0.9999598264694214,
        0.9999967217445374,
        0.9999706745147705,
        1.0
      ],
      "min": [
        -0.9999781847000122,
        -0.9999291300773621,
        -0.99989914894104,
        -1.0
      ],
      "type": "VEC4"
    },
    {
      "bufferView": 1,
      "componentType": 5126,
      "count": 18094,
      "max": [
        0.9834219813346863,
        0.9900000095367432
      ],
      "min": [
        0.009999999776482582,
        0.009999999776482582
      ],
      "type": "VEC2"
    },
    {
      "bufferView": 0,
      "componentType": 5125,
      "count": 77304,
      "type": "SCALAR"
    }
  ],
  "asset": {
    "extras": {
      "author": "Idmental (https://sketchfab.com/idmental.id)",
      "license": "CC-BY-4.0 (http://creativecommons.org/licenses/by/4.0/)",
      "source": "https://sketchfab.com/3d-models/deer-beetle-low-poly-rebaked-50684afa3323458cbcd013651b662102",
      "title": "Deer Beetle Low Poly [rebaked]"
    },
    "generator": "Sketchfab-12.68.0",
    "version": "2.0"
  },
  "bufferViews": [
    {
      "buffer": 0,
      "byteLength": 309216,
      "name": "floatBufferViews",
      "target": 34963
    },
    {
      "buffer": 0,
      "byteLength": 144752,
      "byteOffset": 309216,
      "byteStride": 8,
      "name": "floatBufferViews",
      "target": 34962
    },
    {
      "buffer": 0,
      "byteLength": 434256,
      "byteOffset": 453968,
      "byteStride": 12,
      "name": "floatBufferViews",
      "target": 34962
    },
    {
      "buffer": 0,
      "byteLength": 289504,
      "byteOffset": 888224,
      "byteStride": 16,
      "name": "floatBufferViews",
      "target": 34962
    }
  ],
  "buffers": [
    {
      "byteLength": 1177728,
      "uri": "scene.bin"
    }
  ],
  "images": [
    {
      "uri": "textures/BUG_OLEN_baseColor.jpeg"
    },
    {
      "uri": "textures/BUG_OLEN_metallicRoughness.png"
    },
    {
      "uri": "textures/BUG_OLEN_normal.png"
    }
  ],
  "materials": [
    {
      "doubleSided": true,
      "emissiveFactor": [
        0.3073069645708157,
        0.3073069645708157,
        0.3073069645708157
      ],
      "emissiveTexture": {
        "index": 0
      },
      "name": "BUG_OLEN",
      "normalTexture": {
        "index": 2
      },
      "pbrMetallicRoughness": {
        "baseColorTexture": {
          "index": 0
        },
        "metallicRoughnessTexture": {
          "index": 1
        }
      }
    }
  ],
  "meshes": [
    {
      "name": "Object_0",
      "primitives": [
        {
          "attributes": {
            "NORMAL": 1,
            "POSITION": 0,
            "TANGENT": 2,
            "TEXCOORD_0": 3
          },
          "indices": 4,
          "material": 0,
          "mode": 4
        }
      ]
    }
  ],
  "nodes": [
    {
      "children": [
        1
      ],
      "matrix": [
        1.0,
        0.0,
        0.0,
        0.0,
        0.0,
        2.220446049250313e-16,
        -1.0,
        0.0,
        0.0,
        1.0,
        2.220446049250313e-16,
        0.0,
        0.0,
        0.0,
        0.0,
        1.0
      ],
      "name": "Sketchfab_model"
    },
    {
      "children": [
        2
      ],
      "name": "BUG OLEN.obj.cleaner.materialmerger.gles"
    },
    {
      "mesh": 0,
      "name": "Object_2"
    }
  ],
  "samplers": [
    {
      "magFilter": 9729,
      "minFilter": 9987,
      "wrapS": 10497,
      "wrapT": 10497
    }
  ],
  "scene": 0,
  "scenes": [
    {
      "name": "Sketchfab_Scene",
      "nodes": [
        0
      ]
    }
  ],
  "textures": [
    {
      "sampler": 0,
      "source": 0
    },
    {
      "sampler": 0,
      "source": 1
    },
    {
      "sampler": 0,
      "source": 2
    }
  ]
}
